# xmcd
#
# Track frame offsets: 
#        182
#        15025
#        35727
#        51617
#        79347
#
# Disc length: 1529 seconds
#
# Revision: 0
# Processed by: cddbd v1.5.2PL0 Copyright (c) Steve Scherf et al.
# Submitted via: ExactAudioCopy v0.95b4
#
DISCID=3805f705
DTITLE=Lisa Miller - All Worked Out
DYEAR=1995
DGENRE=Country
TTITLE0=All Worked Out
TTITLE1=Good Year For The Roses
TTITLE2=Everybody Needs Love
TTITLE3=Nobody's An Angel
TTITLE4=Steel Guitar
EXTD=
EXTT0=
EXTT1=
EXTT2=
EXTT3=
EXTT4=
PLAYORDER=
